<svg xmlns="http://www.w3.org/2000/svg" id="Camada_2" data-name="Camada 2" viewBox="0 0 398.26 414.87"><defs><style>      .cls-1 {        fill: #c25d17;      }    </style></defs><g id="Capa_1" data-name="Capa 1"><g><path class="cls-1" d="m91.26,294.55c-10.36,0-19.17,3.62-26.45,10.89-7.26,7.26-10.88,16.07-10.88,26.45s3.62,19.19,10.88,26.45c7.27,7.26,16.08,10.89,26.45,10.89s18.98-3.64,26.33-10.89c7.35-7.26,11.02-16.07,11.02-26.45s-3.67-19.19-11.02-26.45c-7.35-7.26-16.12-10.89-26.33-10.89h0Z"></path><path class="cls-1" d="m82.98,215.73c0-11.42-4.07-21.18-12.2-29.31-8.11-8.13-17.89-12.18-29.29-12.18s-21.18,4.05-29.31,12.18c-8.12,8.13-12.18,17.89-12.18,29.31s4.06,21.17,12.18,29.29c8.13,8.13,17.9,12.18,29.31,12.18s21.18-4.05,29.29-12.18c8.13-8.13,12.2-17.89,12.2-29.29h0Z"></path><path class="cls-1" d="m323.6,120.31c5.7,0,10.58-2.02,14.65-6.09,4.06-4.06,6.09-8.95,6.09-14.66s-2.04-10.58-6.09-14.64c-4.07-4.07-8.95-6.11-14.65-6.11s-10.6,2.04-14.66,6.11c-4.05,4.06-6.09,8.94-6.09,14.64s2.04,10.6,6.09,14.66c4.06,4.07,8.95,6.09,14.66,6.09h0Z"></path><path class="cls-1" d="m91.28,53.94c-12.63,0-23.39,4.45-32.29,13.35-8.9,8.9-13.35,19.66-13.35,32.27s4.44,23.39,13.35,32.29c8.9,8.91,19.67,13.35,32.29,13.35s23.37-4.44,32.28-13.35c8.9-8.9,13.35-19.67,13.35-32.29s-4.44-23.37-13.35-32.27c-8.91-8.9-19.66-13.35-32.28-13.35h0Z"></path><path class="cls-1" d="m391,198.1c-4.83-4.85-10.71-7.26-17.62-7.26s-12.8,2.41-17.63,7.26c-4.83,4.83-7.26,10.72-7.26,17.64s2.42,12.79,7.26,17.62c4.83,4.85,10.72,7.26,17.63,7.26s12.79-2.41,17.62-7.26c4.85-4.83,7.26-10.71,7.26-17.62s-2.41-12.8-7.26-17.64h0Z"></path><path class="cls-1" d="m323.6,302.85c-7.96,0-14.79,2.84-20.5,8.54-5.7,5.7-8.55,12.54-8.55,20.5s2.84,14.78,8.55,20.48c5.72,5.7,12.54,8.56,20.5,8.56s14.78-2.86,20.48-8.56c5.7-5.7,8.56-12.53,8.56-20.48s-2.86-14.77-8.56-20.5c-5.7-5.7-12.54-8.54-20.48-8.54h0Z"></path><path class="cls-1" d="m207.44,348.47c-9.17,0-16.99,3.25-23.48,9.73-6.48,6.5-9.71,14.31-9.71,23.46s3.23,16.99,9.71,23.47c6.5,6.49,14.31,9.74,23.48,9.74s16.97-3.25,23.46-9.74c6.48-6.48,9.73-14.3,9.73-23.47s-3.25-16.97-9.73-23.46c-6.5-6.48-14.31-9.73-23.46-9.73h0Z"></path><path class="cls-1" d="m207.44,0c-13.83,0-25.6,4.83-35.28,14.51-9.68,9.68-14.51,21.45-14.51,35.27s4.83,25.58,14.51,35.26c9.68,9.68,21.45,14.51,35.28,14.51s25.58-4.83,35.26-14.51c9.68-9.68,14.51-21.43,14.51-35.26s-4.83-25.58-14.51-35.27c-9.68-9.66-21.43-14.51-35.26-14.51h0Z"></path></g></g></svg>